<svg width="50" height="50" viewBox= "0 0 155 170" 
 xmlns="http://www.w3.org/2000/svg">

 <g>
  <title>Layer 1</title>
  <path id="svg_3" d="m236.04401,239.01868q0.271,0.18613 0.54137,0m-0.48264,-0.36758c0,-0.02876 0.02332,-0.05208 0.05208,-0.05208c0.02876,0 0.05208,0.02332 0.05208,0.05208c0,0.02876 -0.02332,0.05208 -0.05208,0.05208c-0.02876,0 -0.05208,-0.02332 -0.05208,-0.05208m0.32037,0c0,-0.02876 0.0233,-0.05208 0.05208,-0.05208c0.02876,0 0.05208,0.02332 0.05208,0.05208c0,0.02876 -0.02332,0.05208 -0.05208,0.05208c-0.02878,0 -0.05208,-0.02332 -0.05208,-0.05208m-0.60811,0.14954l0,0c0,-0.27614 0.22386,-0.5 0.5,-0.5c0.27614,0 0.49998,0.22386 0.49998,0.5c0,0.27614 -0.22385,0.5 -0.49998,0.5c-0.27614,0 -0.5,-0.22386 -0.5,-0.5zm0,0l0,0c0,-0.27614 0.22386,-0.5 0.5,-0.5c0.27614,0 0.49998,0.22386 0.49998,0.5c0,0.27614 -0.22385,0.5 -0.49998,0.5c-0.27614,0 -0.5,-0.22386 -0.5,-0.5z"   stroke-width="0" stroke="#000000" fill="#ff0000"/>
  <path stroke="#000000" id="svg_4" d="m40.88623,111.87648q33.3344,21.96115 66.58997,0m-59.36604,-43.37674c0,-3.39401 2.86967,-6.14703 6.4075,-6.14703c3.53783,0 6.4075,2.75302 6.4075,6.14703c0,3.39401 -2.86967,6.14523 -6.4075,6.14523c-3.53783,0 -6.4075,-2.75122 -6.4075,-6.14523m39.40594,0c0,-3.39401 2.86967,-6.14703 6.4075,-6.14703c3.53783,0 6.40562,2.75302 6.40562,6.14703c0,3.39401 -2.8678,6.14523 -6.40562,6.14523c-3.53783,0 -6.4075,-2.75122 -6.4075,-6.14523m-74.79547,17.64526l0,0c0,-32.58432 27.53499,-59 61.5,-59c33.96501,0 61.5,26.41568 61.5,59c0,32.58432 -27.53499,59 -61.5,59c-33.96501,0 -61.5,-26.41568 -61.5,-59zm0,0l0,0c0,-32.58432 27.53499,-59 61.5,-59c33.96501,0 61.5,26.41568 61.5,59c0,32.58432 -27.53499,59 -61.5,59c-33.96501,0 -61.5,-26.41568 -61.5,-59z"  stroke-width="3" fill="#ff0000"/>
 </g>
</svg>