<svg width="10" height="10" xmlns="http://www.w3.org/2000/svg" xmlns:xlink="http://www.w3.org/1999/xlink">
 <defs>
  <linearGradient id="linearGradient1378">
   <stop stop-color="#ff8b8e" id="stop1380" offset="0"/>
   <stop stop-color="#b42314" stop-opacity="0.72241" id="stop1382" offset="1"/>
  </linearGradient>
  <linearGradient id="linearGradient1365">
   <stop stop-color="#f1140c" offset="0" id="stop1367"/>
   <stop stop-color="#8d1a02" offset="1" id="stop1370"/>
  </linearGradient>
  <linearGradient id="linearGradient1352">
   <stop stop-color="#982007" id="stop1354" offset="0"/>
   <stop stop-color="#510f02" id="stop1356" offset="1"/>
  </linearGradient>
  <linearGradient y2="-0.06222" x2="0.75577" y1="-0.06222" x1="0.13515" gradientTransform="matrix(0.889325,0.000000,0.000000,0.889325,3.541600,3.541600)" id="linearGradient1483" xlink:href="#linearGradient1352"/>
  <linearGradient y2="0.05299" x2="2.22388" y1="0.05299" x1="1.25007" gradientTransform="matrix(0.889325,0.000000,0.000000,0.889325,-32.54864,2.451357)" id="linearGradient1485" xlink:href="#linearGradient1365"/>
  <linearGradient y2="-0.00779" x2="1.05182" y1="-0.00779" x1="0.02997" gradientTransform="matrix(0.889325,0.000000,0.000000,0.889325,3.541593,3.541600)" id="linearGradient1487" xlink:href="#linearGradient1378"/>
 </defs>
 <g transform="translate(13 13)">
  <title>Layer 1</title>
  <g id="layer1">
   <g id="g1478">
    <path fill="url(#linearGradient1483)" stroke-width="2" stroke-linecap="round" stroke-linejoin="round" stroke-miterlimit="4" d="m2.0251,7.21133c-0.37601,0.45376 -0.34185,1.1199 0.0786,1.53282l9.25586,9.25585l-9.25586,9.25585c-0.21499,0.21299 -0.33595,0.50308 -0.33595,0.80572c0,0.30263 0.12096,0.59272 0.33595,0.80571l5.03079,5.03078c0.21299,0.215 0.50307,0.33595 0.80571,0.33595c0.30263,0 0.59272,-0.12095 0.80571,-0.33595l9.25585,-9.25586l9.25585,9.25586c0.21299,0.215 0.50308,0.33595 0.80571,0.33595c0.30264,0 0.59272,-0.12095 0.80571,-0.33595l5.03079,-5.03078c0.21499,-0.21299 0.33595,-0.50308 0.33595,-0.80571c0,-0.30264 -0.12096,-0.59273 -0.33595,-0.80572l-9.25585,-9.25585l9.25585,-9.25585c0.21499,-0.21299 0.33595,-0.50308 0.33595,-0.80571c0,-0.30264 -0.12096,-0.59273 -0.33595,-0.80572l-5.03079,-5.03078c-0.21299,-0.215 -0.50307,-0.33595 -0.80571,-0.33595c-0.30263,0 -0.59272,0.12095 -0.80571,0.33595l-9.25585,9.25586l-9.25585,-9.25586c-0.21299,-0.215 -0.50308,-0.33595 -0.80571,-0.33595c-0.30264,0 -0.59272,0.12095 -0.80571,0.33595l-5.03079,5.03078c-0.02747,0.02491 -0.0537,0.05114 -0.0786,0.07861z" id="path1349"/>
    <path fill="url(#linearGradient1485)" stroke-width="2" stroke-linecap="round" stroke-linejoin="round" stroke-miterlimit="4" d="m7.71875,2.94705c-0.17983,0.04723 -0.34245,0.1448 -0.46875,0.28125l-4.03125,4.03125c-0.37716,0.38074 -0.37716,0.99426 0,1.375l9.375,9.375l-9.375,9.375c-0.37716,0.38074 -0.37716,0.99426 0,1.375l4.03125,4.03125c0.38074,0.37716 0.99426,0.37716 1.375,0l9.375,-9.375l9.375,9.375c0.38074,0.37716 0.99426,0.37716 1.375,0l4.03125,-4.03125c0.37716,-0.38074 0.37716,-0.99426 0,-1.375l-9.375,-9.375l9.375,-9.375c0.37716,-0.38074 0.37716,-0.99426 0,-1.375l-4.03125,-4.03125c-0.38074,-0.37716 -0.99426,-0.37716 -1.375,0l-9.375,9.375l-9.375,-9.375c-0.23321,-0.24402 -0.57586,-0.35036 -0.90625,-0.28125z" id="path1468"/>
    <path fill="url(#linearGradient1487)" stroke-width="2" stroke-linecap="round" stroke-linejoin="round" stroke-miterlimit="4" d="m7.84375,3.65625c-0.03546,0.0137 -0.06746,0.03504 -0.09375,0.0625l-4.03125,4.03125c-0.03189,0.03516 -0.05351,0.0784 -0.0625,0.125c-0.01608,0.05084 -0.01608,0.10541 0,0.15625c0.0137,0.03546 0.03504,0.06746 0.0625,0.09375l9.5625,9.5625c0.0878,0.08375 0.15625,0.1984 0.15625,0.3125c0,0.1141 -0.06844,0.22875 -0.15625,0.3125l-9.5625,9.5625c-0.03189,0.03516 -0.05351,0.0784 -0.0625,0.125c-0.01608,0.05084 -0.01608,0.10541 0,0.15625c0.0137,0.03546 0.03504,0.06746 0.0625,0.09375l4.03125,4.03125c0.03516,0.03189 0.0784,0.05351 0.125,0.0625c0.05084,0.01608 0.10541,0.01608 0.15625,0c0.03546,-0.01371 0.06746,-0.03504 0.09375,-0.0625l9.5625,-9.5625c0.08375,-0.08781 0.1984,-0.15625 0.3125,-0.15625c0.1141,0 0.22874,0.06844 0.3125,0.15625l9.5625,9.5625c0.03516,0.03189 0.0784,0.05351 0.125,0.0625c0.05084,0.01608 0.10541,0.01608 0.15625,0c0.03546,-0.01371 0.06746,-0.03504 0.09375,-0.0625l4.03125,-4.03125c0.03189,-0.03516 0.05351,-0.0784 0.0625,-0.125c0.01608,-0.05084 0.01608,-0.10541 0,-0.15625c-0.01371,-0.03546 -0.03504,-0.06746 -0.0625,-0.09375l-9.5625,-9.5625c-0.08781,-0.08375 -0.15625,-0.1984 -0.15625,-0.3125c0,-0.1141 0.06844,-0.22875 0.15625,-0.3125l9.5625,-9.5625c0.03189,-0.03516 0.05351,-0.0784 0.0625,-0.125c0.01608,-0.05084 0.01608,-0.10541 0,-0.15625c-0.01371,-0.03546 -0.03504,-0.06746 -0.0625,-0.09375l-4.03125,-4.03125c-0.03516,-0.03189 -0.0784,-0.05351 -0.125,-0.0625c-0.05084,-0.01608 -0.10541,-0.01608 -0.15625,0c-0.03546,0.0137 -0.06746,0.03504 -0.09375,0.0625l-9.5625,9.5625c-0.08375,0.0878 -0.1984,0.15625 -0.3125,0.15625c-0.1141,0 -0.22875,-0.06844 -0.3125,-0.15625l-9.5625,-9.5625c-0.03516,-0.03189 -0.0784,-0.05351 -0.125,-0.0625c-0.05084,-0.01608 -0.10541,-0.01608 -0.15625,0z" id="path1472"/>
   </g>
  </g>
 </g>
</svg>