<?xml version="1.0"?>
<svg width="640" height="480" xmlns="http://www.w3.org/2000/svg">
 <!-- Created with SVG-edit - http://svg-edit.googlecode.com/ -->
 <g>
  <title>Layer 1</title>
  <ellipse ry="33" rx="56" id="svg_1" cy="81" cx="73" stroke-width="5" stroke="#000000" fill="#FF0000"/>
  <ellipse ry="4" rx="42" id="svg_2" cy="73" cx="60" stroke-width="5" stroke="#000000" fill="#FF0000"/>
  <ellipse ry="58" rx="98" id="svg_3" cy="68" cx="252" stroke-width="5" stroke="#000000" fill="#FF0000"/>
  <ellipse ry="23" rx="1" id="svg_4" cy="52" cx="247" stroke-width="5" stroke="#000000" fill="#FF0000"/>
  <ellipse ry="27" rx="31" id="svg_5" cy="66" cx="210" stroke-width="5" stroke="#000000" fill="#FF0000"/>
  <path id="svg_6" d="m132.339996,363.404999l0,-82.125l0,0c0,-35.276947 28.598053,-63.875 63.877228,-63.875l0,0l0,0c16.940063,0 33.185059,6.730133 45.166077,18.706696c11.97879,11.981018 18.708893,28.228241 18.708893,45.168304l0,9.125l18.250061,0l-36.500031,36.5l-36.5,-36.5l18.25,0l0,-9.125c0,-15.119904 -12.257263,-27.375 -27.375,-27.375l0,0l0,0c-15.119965,0 -27.375,12.255096 -27.375,27.375l0,82.125l-36.502228,0z" stroke-width="5" stroke="#000000" fill="#FF0000"/>
  <path id="svg_7" d="m388.054993,276.600006l0,-55.125l0,0c0,-23.679047 19.197449,-42.875 42.875,-42.875l0,0l0,0c11.370728,0 22.274902,4.517487 30.316956,12.558044c8.042053,8.040558 12.558044,18.946228 12.558044,30.316956l0,6.125l12.25,0l-24.5,24.5l-24.5,-24.5l12.25,0l0,-6.125c0,-10.147522 -8.227478,-18.375 -18.375,-18.375l0,0l0,0c-10.147522,0 -18.375,8.227478 -18.375,18.375l0,55.125l-24.5,0z" stroke-width="5" stroke="#000000" fill="#FF0000"/>
  <path id="svg_8" d="m462.679993,131.619156l0,-30.936844l0,0c0,-13.289291 10.773315,-24.062309 24.0625,-24.062309l0,0l0,0c6.381531,0 12.502014,2.535133 17.013855,7.047691c4.513275,4.512527 7.048645,10.632858 7.048645,17.014618l0,3.437477l6.875,0l-13.749207,13.749603l-13.751556,-13.749603l6.876556,0l0,-3.437477c0,-5.695457 -4.617462,-10.312531 -10.313293,-10.312531l0,0l0,0c-5.695801,0 -10.313263,4.617073 -10.313263,10.312531l0,30.936844l-13.749237,0z" stroke-width="5" stroke="#000000" fill="#FF0000"/>
  <path id="svg_9" d="m314.424988,395.475006l0,-51.18631l0,0c0,-21.989899 17.826569,-39.81369 39.81369,-39.81369l0,0l0,0c10.558929,0 20.684662,4.19342 28.152283,11.661407c7.465271,7.464844 11.661469,17.590637 11.661469,28.152283l0,5.687897l11.375336,0l-22.750763,22.74765l-22.750427,-22.74765l11.375,0l0,-5.687897c0,-9.423035 -7.639801,-17.062836 -17.062897,-17.062836l0,0l0,0c-9.423035,0 -17.060059,7.639801 -17.060059,17.062836l0,51.18631l-22.753632,0z" stroke-width="5" stroke="#000000" fill="#FF0000"/>
 </g>
</svg>